<?xml version="1.0" encoding="UTF-8" standalone="no"?>
<!DOCTYPE svg PUBLIC "-//W3C//DTD SVG 1.1//EN" "http://www.w3.org/Graphics/SVG/1.1/DTD/svg11.dtd">
<svg width="100%" height="100%" viewBox="0 0 200 200" version="1.1" xmlns="http://www.w3.org/2000/svg" xmlns:xlink="http://www.w3.org/1999/xlink" xml:space="preserve" xmlns:serif="http://www.serif.com/" style="fill-rule:evenodd;clip-rule:evenodd;stroke-linejoin:round;stroke-miterlimit:2;">
    <g transform="matrix(5.55725,0,0,5.55725,47.2867,65.1366)">
        <path d="M0,12.547L-2.916,13.426L-2.916,16.16L0,16.648L0,12.547ZM11.683,12.917C12.164,12.777 13.175,12.47 13.67,12.324L11.683,11.731L11.683,5.928C12.164,5.789 13.175,5.482 13.67,5.335C13.182,5.189 12.164,4.889 11.683,4.742L11.683,-1.068C12.164,-1.214 13.168,-1.514 13.656,-1.66C12.408,-2.03 10.036,-2.748 8.76,-3.125L8.76,16.648L11.683,16.167L11.683,12.917ZM25.534,17.576L21.893,18.176L21.893,12.212L23.867,11.626L16.781,9.506L16.781,5.684L25.534,8.306L25.534,17.576ZM20.429,18.413L16.781,19.02L16.781,12.756L20.429,13.851L20.429,18.413ZM15.316,19.264L5.105,20.945L5.105,-8.028L15.316,-4.966L15.316,19.264ZM3.655,5.147L-2.916,7.107L-2.916,9.611C-1.165,9.095 1.869,8.174 3.655,7.651L3.655,20.945C0.628,20.449 -3.543,19.752 -6.57,19.257L-6.57,4.387L3.655,1.332L3.655,5.147ZM17.262,3.801L17.262,-6.417L3.655,-10.483L-4.896,-7.924L-4.896,1.862L-8.509,2.943L-8.509,20.903L4.38,23.03L27.48,19.229L27.48,6.863L17.262,3.801ZM11.683,5.928C12.164,5.789 13.175,5.482 13.67,5.335C13.182,5.189 12.164,4.889 11.683,4.742L11.683,-1.068C12.164,-1.214 13.168,-1.514 13.656,-1.66C12.408,-2.03 10.036,-2.748 8.76,-3.125L8.76,16.648L11.683,16.167L11.683,12.917C12.164,12.777 13.175,12.47 13.67,12.324L11.683,11.731L11.683,5.928ZM11.683,5.928C12.164,5.789 13.175,5.482 13.67,5.335C13.182,5.189 12.164,4.889 11.683,4.742L11.683,-1.068C12.164,-1.214 13.168,-1.514 13.656,-1.66C12.408,-2.03 10.036,-2.748 8.76,-3.125L8.76,16.648L11.683,16.167L11.683,12.917C12.164,12.777 13.175,12.47 13.67,12.324L11.683,11.731L11.683,5.928Z" style="fill:white;fill-rule:nonzero;"/>
    </g>
</svg>
